<svg xmlns="http://www.w3.org/2000/svg" viewBox="0 0 800 1000" role="img" aria-labelledby="title desc">
  <title id="title">ภาพแทนบุคลากร</title>
  <desc id="desc">ภาพเงาบุคลากรบนพื้นหลังสีน้ำเงินและทอง</desc>
  <defs>
    <linearGradient id="background" x1="0" y1="0" x2="1" y2="1">
      <stop offset="0" stop-color="#182a45"/>
      <stop offset="1" stop-color="#314968"/>
    </linearGradient>
    <linearGradient id="accent" x1="0" y1="0" x2="1" y2="1">
      <stop offset="0" stop-color="#e4ca75"/>
      <stop offset="1" stop-color="#b98b2e"/>
    </linearGradient>
  </defs>
  <rect width="800" height="1000" fill="url(#background)"/>
  <circle cx="680" cy="150" r="230" fill="#ffffff" opacity=".035"/>
  <circle cx="110" cy="900" r="300" fill="#ffffff" opacity=".025"/>
  <path d="M0 780 800 570v430H0Z" fill="#101f34" opacity=".75"/>
  <circle cx="400" cy="330" r="145" fill="#f4ead0"/>
  <path d="M210 345c15-148 94-225 190-225s175 77 190 225c-47-34-111-54-190-54s-143 20-190 54Z" fill="#14243a"/>
  <path d="M128 880c22-222 120-354 272-354s250 132 272 354Z" fill="#f4ead0"/>
  <path d="m317 555 83 102 83-102 70 43-57 282H304l-57-282Z" fill="#253b59"/>
  <path d="m400 657-38 65 38 158 38-158Z" fill="url(#accent)"/>
  <rect x="86" y="78" width="150" height="8" rx="4" fill="url(#accent)"/>
  <rect x="86" y="100" width="90" height="5" rx="2.5" fill="#f4ead0" opacity=".55"/>
</svg>
